<?xml version="1.0" standalone="no"?>
<!DOCTYPE svg PUBLIC "-//W3C//DTD SVG 20010904//EN"
 "http://www.w3.org/TR/2001/REC-SVG-20010904/DTD/svg10.dtd">
<svg version="1.0" xmlns="http://www.w3.org/2000/svg"
 width="194.000000pt" height="259.000000pt" viewBox="0 0 194.000000 259.000000"
 preserveAspectRatio="xMidYMid meet">

<g transform="translate(0.000000,259.000000) scale(0.100000,-0.100000)"
fill="#000000" stroke="none">
<path d="M600 2578 c30 -12 204 -37 310 -44 41 -3 91 -9 110 -14 19 -6 61 -10
92 -10 35 0 58 -5 60 -12 6 -18 310 -31 556 -23 l212 7 0 54 0 54 -682 -1
c-480 0 -676 -3 -658 -11z"/>
<path d="M1905 1982 c-4 -10 1 -21 10 -29 10 -6 14 -17 10 -23 -6 -9 -9 -9
-15 0 -6 9 -16 8 -44 -5 -20 -10 -44 -15 -55 -12 -14 3 -17 0 -14 -14 4 -13
-2 -20 -20 -24 -14 -4 -27 -14 -29 -23 -3 -14 -5 -14 -20 2 -10 9 -22 14 -28
11 -5 -3 -10 -1 -10 4 0 6 5 11 10 11 6 0 10 5 10 10 0 6 -7 10 -16 10 -14 0
-14 3 -4 15 7 8 19 15 26 15 8 0 14 6 14 14 0 9 15 17 40 21 49 8 52 20 5 21
-19 1 -33 -2 -30 -6 5 -8 -39 -30 -58 -29 -7 0 -2 4 11 10 13 5 20 13 17 19
-4 6 -11 8 -16 4 -16 -9 -73 -14 -79 -6 -3 4 -25 4 -50 1 -25 -3 -37 -7 -27
-7 10 -1 16 -6 12 -11 -3 -6 -14 -8 -25 -6 -12 2 -20 -2 -20 -9 0 -8 10 -12
25 -11 32 4 36 -3 20 -40 l-13 -30 -11 28 c-6 15 -18 27 -26 27 -10 0 -13 5
-9 12 5 8 2 9 -9 5 -10 -3 -17 -2 -17 3 0 6 7 10 16 10 13 0 13 2 2 13 -7 7
-25 12 -40 12 -28 0 -28 -14 0 -16 11 0 12 -3 5 -6 -7 -2 -13 -18 -13 -34 0
-37 -27 -39 -40 -4 -5 14 -13 25 -17 24 -21 -3 -24 2 -12 19 11 14 11 15 0 5
-11 -9 -22 -8 -52 4 -41 16 -129 11 -129 -7 0 -5 -8 -7 -17 -3 -12 4 -11 0 5
-11 17 -14 21 -24 17 -49 -7 -39 -25 -78 -35 -72 -4 3 -13 -2 -20 -10 -10 -13
-9 -15 10 -15 14 0 24 8 27 21 4 14 12 19 25 16 19 -5 19 6 2 91 -3 15 0 22
11 22 15 0 16 -6 19 -72 0 -17 7 -33 15 -36 11 -4 13 8 9 60 -5 57 -3 65 11
61 14 -3 15 -15 11 -73 -3 -44 -2 -66 4 -60 13 13 39 13 31 0 -3 -5 -2 -10 3
-10 19 0 23 -34 7 -46 -15 -11 -14 -13 7 -17 18 -4 17 -5 -7 -5 -16 0 -32 -1
-35 -2 -3 0 -22 -3 -43 -5 l-38 -4 23 20 c22 18 22 20 3 18 -65 -5 -215 2
-215 10 0 17 42 24 51 10 8 -11 12 -10 24 5 22 29 19 37 -13 34 -15 -1 -33 2
-40 6 -18 11 -42 -12 -42 -39 0 -19 -5 -22 -32 -20 -18 2 -39 -2 -45 -7 -9 -7
-13 -7 -13 1 0 6 -3 10 -7 10 -20 -3 -27 2 -14 10 15 10 22 61 9 61 -4 0 -9
-4 -9 -10 -1 -5 -2 -14 -3 -19 -3 -24 -41 -47 -66 -40 -23 6 -22 10 5 13 14 2
55 38 55 49 0 4 -4 5 -10 2 -6 -3 -10 -1 -10 5 0 6 -4 9 -8 6 -5 -3 -9 1 -9 9
0 10 6 11 24 4 30 -11 53 -12 36 -1 -8 5 -3 11 15 20 19 9 23 9 14 0 -19 -19
-14 -26 18 -23 17 1 30 -2 30 -7 0 -5 5 -6 12 -2 8 5 6 11 -5 19 -24 18 -21
28 8 23 13 -3 22 -1 19 3 -3 5 6 9 20 9 33 0 34 25 1 26 -14 1 -25 -2 -25 -6
0 -5 -14 -5 -31 0 -35 10 -53 5 -43 -12 4 -6 2 -8 -4 -5 -14 9 -43 -3 -36 -14
3 -5 -2 -6 -10 -3 -9 3 -16 10 -16 16 0 13 -93 7 -102 -6 -5 -7 -8 -7 -8 2 0
6 -5 12 -11 12 -5 0 -8 -4 -5 -9 3 -5 0 -11 -8 -14 -8 -3 -16 2 -19 14 -7 25
-25 24 -29 -2 l-3 -20 -22 20 c-26 25 -37 27 -29 5 3 -9 3 -21 -1 -27 -5 -7
-10 2 -13 22 -5 33 -6 34 -22 17 -10 -10 -18 -13 -18 -7 0 7 -23 11 -56 11
-37 0 -53 -4 -48 -11 4 -7 -2 -10 -17 -8 -13 2 -28 1 -34 -2 -5 -3 -18 2 -27
13 -20 20 -10 25 11 6 10 -11 11 -10 6 5 -8 19 -30 23 -40 6 -4 -6 -13 -8 -21
-5 -8 3 -11 0 -7 -10 6 -17 20 -18 25 -2 3 8 9 5 16 -9 9 -16 9 -21 -1 -19
-30 5 -57 18 -57 27 0 14 -37 11 -43 -5 -4 -9 0 -12 13 -9 10 3 21 -1 25 -9 5
-7 4 -10 0 -5 -5 4 -14 -5 -21 -20 -12 -28 -13 -28 -19 -5 -8 23 -25 31 -25
11 0 -6 -6 -9 -13 -6 -8 3 -20 2 -27 -3 -14 -8 -70 7 -70 19 0 4 5 12 12 19 9
9 7 13 -6 18 -11 4 -22 1 -27 -7 -12 -19 -11 -39 1 -39 6 0 10 -6 10 -14 0 -9
-12 -14 -32 -15 -18 0 -50 -2 -70 -3 l-38 -3 0 -53 c0 -38 3 -51 12 -46 8 5 9
0 2 -17 -4 -13 -10 -134 -11 -269 l-4 -245 68 -1 c49 -1 79 -7 108 -22 21 -12
46 -22 55 -22 9 0 25 -6 35 -14 18 -13 18 -14 -1 -20 -11 -3 -46 1 -78 9 -63
17 -84 15 -39 -3 56 -23 117 -32 125 -19 5 7 8 8 8 2 0 -6 -5 -16 -11 -22 -8
-8 -8 -17 0 -31 6 -10 7 -23 3 -27 -4 -4 68 -5 160 -1 98 4 168 3 168 -3 0 -5
-97 -12 -215 -16 -118 -4 -215 -11 -215 -16 0 -5 -5 -9 -11 -9 -5 0 -7 5 -3
11 5 9 -1 10 -22 5 -16 -4 -30 -9 -31 -10 -2 -2 -11 -42 -12 -58 -1 -5 -5 -8
-11 -8 -15 0 -12 87 3 93 7 3 5 6 -5 6 -11 1 -18 -6 -18 -18 0 -36 -10 -48
-36 -43 l-24 4 0 -496 0 -496 970 0 970 0 0 530 0 530 -97 0 c-53 0 -94 2 -92
5 3 2 43 6 89 9 107 5 100 4 100 17 0 7 -17 10 -45 7 -26 -2 -45 1 -45 7 0 5
-4 4 -9 -3 -6 -10 -31 -13 -98 -10 -76 2 -90 1 -88 -12 1 -10 14 -15 43 -15
22 0 38 -3 35 -7 -2 -5 -30 -8 -62 -8 -31 0 -62 -5 -67 -10 -8 -8 -15 -6 -24
5 -10 12 -10 18 1 31 11 14 4 15 -77 10 -49 -3 -159 -8 -244 -11 -85 -3 -189
-8 -230 -10 -41 -2 -142 -7 -225 -10 -82 -4 -157 -8 -167 -11 -9 -3 -19 -1
-22 5 -7 10 54 16 339 32 104 6 194 13 198 16 5 3 68 4 140 4 73 -1 164 3 202
8 95 14 156 19 313 27 80 4 128 10 120 15 -7 5 -26 9 -43 9 -16 0 -41 7 -55
15 -15 8 -44 12 -75 10 -35 -3 -41 -2 -20 3 l30 7 -45 14 c-25 8 -62 25 -82
39 -32 21 -35 26 -23 38 16 16 29 19 20 4 -9 -14 9 -12 24 3 10 10 11 9 6 -5
-8 -19 2 -23 24 -9 7 5 11 13 7 19 -3 5 2 9 12 8 9 0 20 -8 24 -16 5 -12 7
-10 8 5 1 18 2 18 8 3 6 -16 10 -15 40 8 17 14 32 30 32 37 0 6 -7 2 -15 -9
-14 -18 -14 -17 -15 13 0 17 4 35 10 38 5 3 7 0 4 -8 -4 -11 9 -8 46 10 28 13
55 21 60 18 6 -3 10 1 10 9 0 9 5 16 10 16 6 0 10 33 10 80 0 57 -4 80 -12 80
-10 0 -10 2 0 9 15 9 15 131 0 131 -5 0 -6 5 -3 10 3 6 0 10 -7 10 -7 0 -19
-9 -25 -20 -11 -17 -10 -19 5 -14 14 5 14 3 -2 -10 -11 -9 -23 -16 -27 -16 -9
0 -6 20 5 38 11 18 7 21 -42 23 -23 2 -42 7 -42 11 0 4 -16 8 -35 8 -37 0 -41
-6 -24 -30 9 -13 10 -12 5 3 -3 11 0 17 9 17 22 0 18 -17 -7 -34 -12 -9 -17
-16 -10 -16 6 0 12 -4 12 -10 0 -5 -7 -7 -16 -3 -11 4 -14 13 -10 29 6 22 3
24 -31 24 -26 0 -34 3 -24 9 8 5 21 6 30 3 14 -5 14 -4 1 10 -8 9 -17 13 -20
9 -21 -30 -130 -27 -130 4 0 7 4 17 10 20 6 4 7 -1 3 -11 -6 -17 15 -16 107 3
19 5 44 7 55 7 11 -1 28 -2 38 -3 10 -1 15 -5 12 -11 -3 -5 -2 -10 4 -10 5 0
13 5 17 11 3 6 15 9 25 6 21 -6 26 8 7 16 -7 3 -3 6 10 6 15 1 26 -7 32 -21 5
-13 9 -17 9 -10 1 7 6 10 11 7 6 -3 10 -1 10 5 0 6 4 9 9 6 5 -4 16 -4 24 -1
20 8 22 181 2 189 -7 2 -16 -3 -20 -12z m-277 -29 c-10 -2 -26 -2 -35 0 -10 3
-2 5 17 5 19 0 27 -2 18 -5z m-313 -23 c0 -7 -6 -15 -12 -17 -8 -3 -13 4 -13
17 0 13 5 20 13 18 6 -3 12 -11 12 -18z m43 -8 c2 -12 -1 -29 -6 -38 -8 -14
-10 -8 -14 24 -4 43 14 55 20 14z m269 -7 c-7 -8 -16 -10 -23 -4 -6 5 -14 6
-17 2 -4 -3 -7 -1 -7 5 0 11 38 21 52 14 4 -1 2 -9 -5 -17z m-1070 -2 c5 3 9
-3 9 -14 0 -15 -7 -19 -31 -18 -24 0 -26 2 -11 8 14 5 16 10 8 15 -7 4 -12 12
-12 18 0 7 5 6 15 -2 8 -6 18 -9 22 -7z m918 -3 c-3 -5 -10 -10 -16 -10 -5 0
-9 5 -9 10 0 6 7 10 16 10 8 0 12 -4 9 -10z m-1005 -9 c0 -5 -3 -17 -6 -25 -5
-13 -9 -14 -20 -5 -21 17 -17 39 6 39 11 0 20 -4 20 -9z m354 1 c2 -4 -8 -19
-22 -32 -20 -19 -39 -25 -74 -26 -26 0 -45 3 -43 7 7 11 64 16 68 6 1 -5 14 5
27 22 26 32 35 37 44 23z m-434 -28 c0 -8 -8 -14 -17 -14 -15 0 -16 2 -3 10
12 7 8 10 -15 11 -25 0 -27 2 -10 8 25 10 45 3 45 -15z m1473 8 c16 -17 14
-18 -31 -19 -41 -1 -43 0 -17 7 17 4 23 8 15 9 -13 1 -13 2 0 11 8 5 15 10 16
10 0 0 8 -8 17 -18z m47 -2 c0 -5 -4 -10 -10 -10 -5 0 -10 5 -10 10 0 6 5 10
10 10 6 0 10 -4 10 -10z m-1286 -8 c2 -4 -4 -8 -15 -8 -10 0 -19 4 -19 8 0 4
6 8 14 8 8 0 17 -4 20 -8z m31 -14 c-1 -13 -6 -23 -11 -23 -5 0 -14 -3 -19 -7
-6 -4 -17 -3 -25 2 -7 4 -18 6 -24 4 -7 -3 -12 5 -13 16 -1 11 3 20 8 20 6 0
8 -4 5 -9 -7 -11 41 -24 54 -16 6 4 10 13 10 21 0 8 4 14 8 14 5 0 8 -10 7
-22z m992 7 c-9 -9 -17 -10 -31 -3 -16 9 -18 7 -13 -6 6 -15 1 -17 -35 -14
-23 2 -43 8 -44 16 -1 7 0 8 3 2 7 -14 42 -12 58 3 7 8 27 14 44 15 25 0 28
-2 18 -13z m-1220 -1 c-3 -3 -12 -4 -19 -1 -8 3 -5 6 6 6 11 1 17 -2 13 -5z
m1003 -4 c0 -5 -7 -7 -15 -4 -8 4 -15 8 -15 10 0 2 7 4 15 4 8 0 15 -4 15 -10z
m80 2 c0 -4 -9 -13 -20 -20 -16 -10 -20 -10 -20 2 0 8 6 17 13 19 19 8 27 8
27 -1z m-1175 -22 c3 -6 -4 -10 -17 -10 -18 0 -20 2 -8 10 19 12 18 12 25 0z
m1524 6 c-2 -1 -19 -8 -36 -14 -24 -8 -34 -8 -39 0 -4 6 -3 8 4 4 6 -3 13 -2
17 4 3 5 18 10 32 10 15 0 24 -2 22 -4z m41 -4 c0 -5 -7 -9 -15 -9 -8 0 -15 4
-15 9 0 4 7 8 15 8 8 0 15 -4 15 -8z m-480 -12 c0 -5 -4 -10 -10 -10 -5 0 -10
5 -10 10 0 6 5 10 10 10 6 0 10 -4 10 -10z m225 0 c3 -5 1 -10 -4 -10 -6 0
-11 5 -11 10 0 6 2 10 4 10 3 0 8 -4 11 -10z m-894 -25 c5 3 6 -1 3 -9 -3 -9
-10 -13 -15 -10 -5 3 -35 8 -67 10 -75 7 -83 17 -9 12 45 -2 57 0 57 12 1 12
3 11 11 -3 6 -9 14 -15 20 -12z m754 -8 c-4 -15 -12 -31 -19 -36 -16 -13 -41
3 -31 20 6 9 10 8 16 -7 7 -17 8 -17 8 4 1 12 6 22 11 22 6 0 10 8 10 17 0 9
2 14 5 11 4 -3 3 -17 0 -31z m-715 3 c0 -5 -4 -10 -10 -10 -5 0 -10 5 -10 10
0 6 5 10 10 10 6 0 10 -4 10 -10z m624 -5 c-4 -10 0 -15 12 -15 25 0 10 -11
-20 -14 -14 -2 -26 1 -26 5 0 5 5 9 11 9 5 0 8 4 5 9 -5 8 0 13 21 20 1 1 0
-6 -3 -14z m110 -30 c-4 -8 -11 -15 -16 -15 -6 0 -5 6 2 15 7 8 14 15 16 15 2
0 1 -7 -2 -15z m-534 -7 c0 -5 -6 -8 -12 -8 -10 0 -9 -3 1 -9 19 -12 0 -20
-26 -10 -35 13 -29 39 7 36 16 -1 30 -5 30 -9z m-642 -21 c2 -9 -2 -25 -8 -36
-12 -24 -45 -29 -36 -6 3 9 0 15 -9 15 -9 0 -12 -6 -8 -17 6 -14 -1 -15 -62
-9 -37 4 -76 11 -85 16 -9 5 -38 10 -63 11 -31 2 -47 7 -47 16 0 7 8 13 18 14
9 0 28 2 40 3 13 2 30 -3 37 -11 9 -8 15 -9 17 -2 2 6 34 12 72 14 37 2 70 5
73 8 11 11 58 -1 61 -16z m322 5 c0 -9 13 -26 29 -37 16 -10 27 -23 25 -27 -3
-4 2 -5 10 -2 18 7 145 -111 170 -159 18 -33 19 -33 70 -26 28 5 69 15 91 23
42 16 112 20 162 10 l29 -6 -8 -71 c-13 -110 -25 -147 -46 -141 -9 2 -3 -2 13
-10 41 -20 65 -20 65 1 0 13 3 14 12 5 9 -9 8 -15 -8 -27 -21 -16 -64 -20 -64
-6 0 13 -43 22 -50 10 -4 -5 -14 -1 -25 11 -17 19 -41 29 -32 13 3 -5 -1 -14
-9 -20 -7 -7 -15 -9 -19 -4 -3 5 0 11 7 13 7 3 5 7 -6 11 -10 4 -15 3 -11 -3
3 -6 -1 -10 -9 -10 -8 0 -18 -5 -22 -12 -4 -7 -3 -8 4 -4 7 4 12 2 12 -3 0
-20 -19 -11 -35 17 -9 15 -14 19 -11 10 6 -20 -10 -25 -17 -5 -3 7 -6 5 -6 -5
-1 -10 5 -18 13 -18 8 0 17 -4 20 -8 3 -5 -18 -3 -46 4 -48 13 -73 24 -52 24
5 0 10 18 11 41 3 54 -10 43 -49 -41 -17 -38 -34 -67 -39 -65 -4 3 -9 0 -11
-7 -7 -21 -26 1 -33 39 -4 21 -17 61 -29 88 -13 28 -26 57 -29 65 -13 34 -7
-18 8 -66 18 -61 18 -59 -1 -44 -13 12 -14 10 -3 -14 9 -19 15 -23 21 -14 5 9
8 8 8 -6 0 -17 -6 -18 -56 -13 -58 6 -84 -5 -84 -35 0 -7 -10 2 -21 20 -24 37
-33 41 -23 10 l6 -23 -24 23 c-27 24 -128 44 -128 25 0 -6 -11 -13 -25 -16
-18 -3 -29 1 -36 15 -5 10 -15 15 -21 12 -6 -4 -8 -3 -5 3 10 15 -24 40 -60
45 -32 4 -45 -5 -20 -15 7 -3 5 -6 -6 -6 -21 -1 -37 36 -37 84 0 27 -7 39 -33
57 -17 13 -36 23 -40 23 -8 0 -27 25 -27 36 0 3 45 4 100 3 55 -1 100 0 100 2
0 3 -7 21 -15 41 -20 46 -20 46 15 38 24 -5 30 -3 30 10 0 13 7 15 38 10 20
-4 45 -9 55 -12 9 -2 17 0 17 4 0 15 -49 109 -49 96 -2 -31 -71 -7 -71 24 0
16 76 18 85 3 4 -6 16 -3 32 10 21 16 40 20 109 19 72 -1 84 -3 84 -17z m167
-4 c-3 -8 -6 -5 -6 6 -1 11 2 17 5 13 3 -3 4 -12 1 -19z m83 7 c0 -18 -20 -20
-20 -2 -1 6 -6 3 -13 -8 -7 -11 -20 -21 -29 -23 -24 -4 -23 3 4 28 26 23 58
27 58 5z m120 5 c0 -5 -2 -10 -4 -10 -3 0 -8 5 -11 10 -3 6 -1 10 4 10 6 0 11
-4 11 -10z m-280 -10 c0 -5 -9 -10 -21 -10 -11 0 -18 -4 -15 -9 7 -11 -13 -9
-33 4 -12 7 -11 10 5 16 28 11 64 11 64 -1z m259 -4 c9 -11 9 -16 -1 -22 -7
-4 -10 -4 -6 1 4 4 3 14 -3 22 -6 7 -9 13 -6 13 2 0 10 -6 16 -14z m86 4 c3
-5 1 -10 -4 -10 -6 0 -11 5 -11 10 0 6 2 10 4 10 3 0 8 -4 11 -10z m63 -7
c-10 -2 -26 -2 -35 0 -10 3 -2 5 17 5 19 0 27 -2 18 -5z m642 -13 c0 -5 -5
-10 -11 -10 -5 0 -7 5 -4 10 3 6 8 10 11 10 2 0 4 -4 4 -10z m-1020 -13 c0 -7
-9 -13 -20 -14 -20 -2 -26 8 -13 20 11 12 33 8 33 -6z m1095 -121 c17 -1 -51
-3 -150 -3 -99 0 -155 3 -125 6 52 6 210 4 275 -3z m-347 -3 c-10 -2 -26 -2
-35 0 -10 3 -2 5 17 5 19 0 27 -2 18 -5z m-1338 -167 c0 -12 -5 -7 -19 24 -11
24 -11 24 3 6 9 -11 16 -24 16 -30z m1446 -51 c-9 -13 -16 -31 -16 -40 0 -8
-4 -15 -9 -15 -5 0 -23 -23 -41 -51 -22 -36 -35 -49 -47 -45 -11 4 -14 2 -9
-9 3 -8 2 -15 -3 -15 -5 0 -12 11 -15 25 -4 17 -14 26 -29 27 -12 0 -29 2 -37
2 -8 1 -23 -3 -32 -8 -13 -8 -29 3 -82 59 -36 39 -66 73 -66 77 0 9 64 -1 111
-17 22 -8 41 -9 51 -4 29 16 132 37 187 38 l53 1 -16 -25z m-1482 -21 c9 -3
13 -11 9 -17 -4 -6 -1 -7 8 -2 7 5 21 10 30 10 16 1 16 0 1 -21 -10 -13 -26
-26 -36 -30 -18 -6 -19 -7 -3 -19 10 -7 35 -15 57 -19 24 -4 43 -14 50 -25 12
-23 14 -63 2 -44 -4 7 -30 17 -57 23 -80 18 -103 31 -108 63 -2 19 1 31 10 34
8 3 12 12 9 20 -6 13 0 33 9 33 2 0 10 -3 19 -6z m1519 -151 c-7 -2 -19 -2
-25 0 -7 3 -2 5 12 5 14 0 19 -2 13 -5z m-1286 -109 c-3 -3 -12 -4 -19 -1 -8
3 -5 6 6 6 11 1 17 -2 13 -5z m1159 -89 c1 -8 -3 -15 -10 -15 -20 0 -26 11
-13 25 13 14 20 12 23 -10z m-62 -26 c-16 -6 -16 -8 -2 -8 9 -1 19 3 22 7 3 5
20 7 37 4 l32 -5 -34 -19 c-33 -18 -33 -19 -6 -13 19 4 26 2 22 -5 -7 -11
-122 -6 -133 5 -3 3 0 5 7 5 7 0 9 5 6 11 -4 6 2 13 14 16 12 3 21 9 21 14 0
5 8 5 17 2 15 -6 15 -7 -3 -14z m-1244 -18 c0 -25 -16 -36 -24 -16 -3 8 -1 15
5 15 6 0 7 5 4 10 -3 6 -1 10 4 10 6 0 11 -9 11 -19z m-47 -28 c-7 -2 -21 -2
-30 0 -10 3 -4 5 12 5 17 0 24 -2 18 -5z m1257 -7 c0 -2 -7 -7 -16 -10 -8 -3
-12 -2 -9 4 6 10 25 14 25 6z m85 -16 c3 -5 -1 -10 -9 -10 -8 0 -18 5 -21 10
-3 6 1 10 9 10 8 0 18 -4 21 -10z m-75 -20 c0 -5 -4 -10 -9 -10 -6 0 -13 5
-16 10 -3 6 1 10 9 10 9 0 16 -4 16 -10z m-1275 -10 l20 -9 -20 -1 c-17 -2
-16 -3 5 -10 21 -7 21 -8 5 -9 -11 0 -27 4 -35 9 -13 9 -13 10 0 11 10 0 8 3
-5 9 -13 5 -14 9 -5 9 8 0 24 -4 35 -9z m1348 3 c-7 -2 -19 -2 -25 0 -7 3 -2
5 12 5 14 0 19 -2 13 -5z m-1386 -39 c-3 -3 -12 -4 -19 -1 -8 3 -5 6 6 6 11 1
17 -2 13 -5z m1430 -20 c-3 -3 -12 -4 -19 -1 -8 3 -5 6 6 6 11 1 17 -2 13 -5z
m-48 -20 c10 -9 -35 -3 -49 6 -11 8 -7 9 15 4 17 -4 32 -8 34 -10z m-1039 -16
c0 -13 -23 -5 -28 10 -2 7 2 10 12 6 9 -3 16 -11 16 -16z m1087 16 c-3 -3 -12
-4 -19 -1 -8 3 -5 6 6 6 11 1 17 -2 13 -5z m-44 -31 c-7 -2 -19 -2 -25 0 -7 3
-2 5 12 5 14 0 19 -2 13 -5z m-1303 -13 c11 -8 7 -9 -15 -4 -37 8 -45 14 -19
14 10 0 26 -5 34 -10z m265 -1 c-26 -10 -75 -11 -75 -1 0 4 21 8 48 8 32 1 41
-1 27 -7z m1275 1 c-8 -5 -22 -9 -30 -9 -10 0 -8 3 5 9 27 12 43 12 25 0z
m-1210 -14 c0 -11 -19 -15 -25 -6 -3 5 1 10 9 10 9 0 16 -2 16 -4z m975 -6
c18 -8 17 -9 -7 -9 -16 -1 -28 4 -28 9 0 12 8 12 35 0z m-1078 -6 c-3 -3 -12
-4 -19 -1 -8 3 -5 6 6 6 11 1 17 -2 13 -5z m18 -13 c-3 -6 -11 -11 -16 -11 -5
0 -4 6 3 14 14 16 24 13 13 -3z m42 3 c-3 -3 -12 -4 -19 -1 -8 3 -5 6 6 6 11
1 17 -2 13 -5z m-390 -80 c-3 -3 -12 -4 -19 -1 -8 3 -5 6 6 6 11 1 17 -2 13
-5z m394 -39 c19 -8 27 -14 19 -14 -14 0 -72 28 -59 29 4 0 22 -7 40 -15z
m-55 -11 c19 -9 32 -19 30 -22 -3 -3 -11 0 -18 6 -7 5 -29 15 -48 20 -19 6
-27 11 -17 11 11 1 34 -6 53 -15z m-36 -14 c0 -5 -4 -10 -10 -10 -5 0 -10 5
-10 10 0 6 5 10 10 10 6 0 10 -4 10 -10z m95 -20 c-11 -5 -27 -9 -35 -9 -9 0
-8 4 5 9 11 5 27 9 35 9 9 0 8 -4 -5 -9z m22 -16 c-3 -3 -12 -4 -19 -1 -8 3
-5 6 6 6 11 1 17 -2 13 -5z m-457 -29 c0 -11 -29 -11 -33 -1 -4 10 1 12 14 9
10 -3 19 -7 19 -8z m364 6 c3 -4 -6 -6 -19 -3 -14 2 -25 6 -25 8 0 8 39 4 44
-5z m-241 -58 c-7 -2 -19 -2 -25 0 -7 3 -2 5 12 5 14 0 19 -2 13 -5z"/>
<path d="M599 1724 c-6 -7 -2 -17 10 -28 14 -13 21 -14 27 -5 4 7 3 10 -3 6
-6 -4 -16 0 -23 8 -7 8 -10 16 -6 16 24 5 33 4 44 -4 9 -7 11 -6 6 6 -6 18
-40 19 -55 1z"/>
<path d="M400 1715 c-10 -12 -10 -15 4 -15 9 0 16 7 16 15 0 8 -2 15 -4 15 -2
0 -9 -7 -16 -15z"/>
<path d="M567 1699 c4 -13 8 -18 11 -10 2 7 -1 18 -6 23 -8 8 -9 4 -5 -13z"/>
<path d="M523 1693 c9 -9 20 -13 24 -9 4 4 1 11 -7 16 -25 16 -35 11 -17 -7z"/>
<path d="M628 1595 c-4 -39 -3 -41 18 -20 12 11 12 19 4 35 -15 27 -17 26 -22
-15z"/>
<path d="M949 1431 c11 -7 11 -10 0 -15 -10 -4 -11 -8 -3 -11 7 -3 9 -15 6
-27 -6 -26 17 -21 32 8 6 10 15 22 19 25 5 4 -6 11 -24 18 -38 13 -49 14 -30
2z"/>
<path d="M641 1264 c0 -11 3 -14 6 -6 3 7 2 16 -1 19 -3 4 -6 -2 -5 -13z"/>
<path d="M1455 950 c3 -5 16 -10 28 -9 21 0 21 1 2 9 -28 12 -37 12 -30 0z"/>
<path d="M1859 1980 c0 -3 -2 -13 -4 -22 -2 -12 3 -18 15 -18 11 0 19 9 22 24
4 19 1 24 -14 23 -10 -1 -18 -4 -19 -7z"/>
<path d="M1771 1946 c-10 -12 -8 -13 8 -9 12 3 21 9 21 14 0 14 -16 11 -29 -5z"/>
<path d="M44 1938 c-3 -5 -15 -8 -25 -5 -16 4 -19 0 -19 -27 l0 -31 60 -1 c54
0 58 1 46 15 -8 9 -16 25 -17 35 -4 21 -35 30 -45 14z m36 -42 c0 -8 -10 -11
-31 -8 -32 5 -25 17 11 19 11 1 20 -4 20 -11z"/>
<path d="M212 1938 c-17 -17 -15 -48 3 -48 8 0 15 5 15 11 0 5 -4 7 -10 4 -13
-8 -13 1 0 26 12 22 9 24 -8 7z"/>
<path d="M1057 1911 c-15 -22 -27 -42 -27 -44 0 -1 19 -3 43 -4 23 0 35 2 27
5 -17 6 -40 28 -40 37 0 3 12 4 28 3 21 -2 27 1 27 17 0 35 -30 28 -58 -14z"/>
<path d="M236 1932 c-3 -6 -1 -14 5 -17 15 -10 25 3 12 16 -7 7 -13 7 -17 1z"/>
<path d="M1140 1902 c0 -15 -6 -34 -12 -41 -11 -10 -10 -11 5 -6 11 5 17 18
17 41 0 19 -2 34 -5 34 -3 0 -5 -13 -5 -28z"/>
<path d="M1723 1913 c4 -3 7 -11 7 -19 0 -8 10 -14 25 -14 29 0 34 15 8 23
-10 2 -25 7 -33 9 -8 3 -12 3 -7 1z"/>
<path d="M1001 1883 c3 -21 -2 -33 -16 -33 -8 0 -15 -4 -15 -10 0 -11 32 -1
42 14 11 16 10 36 -2 36 -5 0 -9 -3 -9 -7z"/>
<path d="M933 1834 c-3 -8 -1 -20 6 -27 8 -8 11 -4 11 16 0 30 -7 35 -17 11z"/>
<path d="M1304 1795 c8 -8 18 -15 22 -15 3 0 1 7 -6 15 -7 8 -17 15 -22 15 -5
0 -3 -7 6 -15z"/>
<path d="M1900 1775 c0 -16 16 -20 24 -6 3 5 -1 11 -9 15 -9 3 -15 0 -15 -9z"/>
<path d="M1913 1383 c-14 -5 -18 -33 -5 -33 4 0 13 5 20 12 22 22 14 33 -15
21z"/>
<path d="M1908 1336 c-20 -15 -28 -30 -27 -51 1 -17 3 -22 6 -12 5 21 10 21
28 3 8 -7 11 -18 7 -22 -4 -5 -1 -4 6 2 8 7 12 28 10 57 l-3 45 -27 -22z"/>
<path d="M1815 1300 c3 -5 11 -10 16 -10 6 0 7 5 4 10 -3 6 -11 10 -16 10 -6
0 -7 -4 -4 -10z"/>
<path d="M0 1170 c0 -5 18 -10 40 -10 22 0 40 5 40 10 0 6 -18 10 -40 10 -22
0 -40 -4 -40 -10z"/>
<path d="M138 1093 c6 -2 13 -14 13 -26 1 -17 2 -18 6 -4 2 9 14 17 26 18 20
1 20 2 -3 9 -28 9 -63 12 -42 3z"/>
<path d="M215 1070 c3 -5 12 -10 20 -10 8 0 17 5 20 10 4 6 -5 10 -20 10 -15
0 -24 -4 -20 -10z"/>
</g>
</svg>
